<svg xmlns="http://www.w3.org/2000/svg" width="192" height="192" viewBox="0 0 192 192">
  <rect width="192" height="192" rx="40" fill="#0a0a0a"/>
  <g transform="translate(96,96)" fill="#ffffff">
    <!-- Main sparkle -->
    <path d="M0-48 C6-16 16-6 48 0 C16 6 6 16 0 48 C-6 16-16 6-48 0 C-16-6-6-16 0-48Z"/>
    <!-- Small sparkle top-right -->
    <path d="M36-36 C38-28 28-38 36-36Z" transform="translate(0,0)">
      <animateTransform attributeName="transform" type="scale" values="0.8;1.2;0.8" dur="2s" repeatCount="indefinite"/>
    </path>
  </g>
  <!-- Small accent sparkle -->
  <g transform="translate(142,42)" fill="#ffffff" opacity="0.7">
    <path d="M0-14 C2-5 5-2 14 0 C5 2 2 5 0 14 C-2 5-5 2-14 0 C-5-2-2-5 0-14Z"/>
  </g>
</svg>
